P1 16 16
0000000000000000
0000000000000000
0000000000000000
0000000000000000
0010000100001000
0111001110011100
0010000100001000
0010000100001000
0010000100001000
0010000100001000
0010000100001000
0001100011000110
0000000000000000
0000000000000000
0000000000000000
0000000000000000
